<?xml version="1.0" encoding="utf-8"?>
<!-- Generator: Adobe Illustrator 16.0.0, SVG Export Plug-In . SVG Version: 6.00 Build 0)  -->
<svg version="1.2" baseProfile="tiny" id="Layer_1" xmlns="http://www.w3.org/2000/svg" xmlns:xlink="http://www.w3.org/1999/xlink"
	 x="0px" y="0px" width="868.8px" height="107.614px" viewBox="0 0 868.8 107.614" xml:space="preserve">
<g>
	<g>
		<linearGradient id="SVGID_1_" gradientUnits="userSpaceOnUse" x1="50.4995" y1="0.1343" x2="50.4995" y2="106.4072">
			<stop  offset="0" style="stop-color:#40C9FF"/>
			<stop  offset="0.1127" style="stop-color:#49C0FF"/>
			<stop  offset="0.3003" style="stop-color:#62A6FF"/>
			<stop  offset="0.5395" style="stop-color:#8A7DFF"/>
			<stop  offset="0.8182" style="stop-color:#C144FF"/>
			<stop  offset="0.9944" style="stop-color:#E81CFF"/>
		</linearGradient>
		<path fill="url(#SVGID_1_)" d="M0.8,60.331c-5-27,14-54,41-59c13-2,25-2,36,4c6,4,11,9,16,14c-7,2-13,6-20,8c-7-7-17-9-27-8
			c-8,2-15,7-20,14c-1,2-2,3-3,5c-6,16,1,34,15,44c14,8,34,5,41-9c3-4,0-9-1-13c-9,0-17,3-25,6c0-7-5-12-7-18c16-7,33-8,50-7
			c2,14,5,28,4,42c0,2-3,3-5,5c-16,18-44,23-66,13C13.8,94.331,1.8,78.331,0.8,60.331L0.8,60.331z"/>
	</g>
	<g>
		<linearGradient id="SVGID_2_" gradientUnits="userSpaceOnUse" x1="155.2949" y1="1.9609" x2="155.2949" y2="106.3311">
			<stop  offset="0" style="stop-color:#40C9FF"/>
			<stop  offset="0.1127" style="stop-color:#49C0FF"/>
			<stop  offset="0.3003" style="stop-color:#62A6FF"/>
			<stop  offset="0.5395" style="stop-color:#8A7DFF"/>
			<stop  offset="0.8182" style="stop-color:#C144FF"/>
			<stop  offset="0.9944" style="stop-color:#E81CFF"/>
		</linearGradient>
		<path fill="url(#SVGID_2_)" d="M176.8,103.331c-2-13-9-25-19-34c-5,1-11,3-16,4c2,11,2,22-1,33c-8,0-17-1-25-2c3-8,3-16,3-24
			c-3-26-10-52-3-78c17,5,35-2,53,0c11,1,20,7,24,17c3,8,4,19,0,27c-4,6-9,11-15,14c10,13,18,27,20,44
			C190.8,103.331,183.8,103.331,176.8,103.331L176.8,103.331z M169.8,31.331c1-6-5-9-10-10c-10-2-18,4-28,4c0,10,3,20,5,30
			c8-1,16-4,24-8C165.8,44.331,171.8,39.331,169.8,31.331L169.8,31.331z"/>
	</g>
	<g>
		<linearGradient id="SVGID_3_" gradientUnits="userSpaceOnUse" x1="224.8438" y1="2.3306" x2="224.8438" y2="105.0352">
			<stop  offset="0" style="stop-color:#40C9FF"/>
			<stop  offset="0.1127" style="stop-color:#49C0FF"/>
			<stop  offset="0.3003" style="stop-color:#62A6FF"/>
			<stop  offset="0.5395" style="stop-color:#8A7DFF"/>
			<stop  offset="0.8182" style="stop-color:#C144FF"/>
			<stop  offset="0.9944" style="stop-color:#E81CFF"/>
		</linearGradient>
		<path fill="url(#SVGID_3_)" d="M213.8,104.331c9-19,4-40-2-59c-5-14-2-29,2-43c7,0,15,0,22,0c-5,13-8,28-3,41c8,20,11,41,3,61
			C228.8,103.331,220.8,106.331,213.8,104.331L213.8,104.331z"/>
	</g>
	<g>
		<linearGradient id="SVGID_4_" gradientUnits="userSpaceOnUse" x1="302.875" y1="2.3306" x2="302.875" y2="107.3311">
			<stop  offset="0" style="stop-color:#40C9FF"/>
			<stop  offset="0.1127" style="stop-color:#49C0FF"/>
			<stop  offset="0.3003" style="stop-color:#62A6FF"/>
			<stop  offset="0.5395" style="stop-color:#8A7DFF"/>
			<stop  offset="0.8182" style="stop-color:#C144FF"/>
			<stop  offset="0.9944" style="stop-color:#E81CFF"/>
		</linearGradient>
		<path fill="url(#SVGID_4_)" d="M255.8,104.331c4-9,4-19,3-28c-3-25-7-49-3-74c17,4,35,0,52,1c15,2,28,10,36,23c9,16,11,35,2,52
			c-1,1-2,3-3,5C322.8,111.331,285.8,109.331,255.8,104.331L255.8,104.331z M327.8,47.331c-1-6-5-11-8-16c-7-8-17-10-27-8
			c-7,2-13,2-20,3c0,11,2,21,5,32c3,10,5,21,6,31c14,0,30-3,40-15C328.8,66.331,330.8,56.331,327.8,47.331L327.8,47.331z"/>
	</g>
	<g>
		<linearGradient id="SVGID_5_" gradientUnits="userSpaceOnUse" x1="379.3003" y1="58.5024" x2="379.3003" y2="77.4272">
			<stop  offset="0" style="stop-color:#40C9FF"/>
			<stop  offset="0.1127" style="stop-color:#49C0FF"/>
			<stop  offset="0.3003" style="stop-color:#62A6FF"/>
			<stop  offset="0.5395" style="stop-color:#8A7DFF"/>
			<stop  offset="0.8182" style="stop-color:#C144FF"/>
			<stop  offset="0.9944" style="stop-color:#E81CFF"/>
		</linearGradient>
		<path fill="url(#SVGID_5_)" d="M360.8,76.331c0-6,0-11,0-17c3,1,5,2,8,2c10-2,19-4,29-2c0,6,0,11,0,17c-3-3-8-2-12-2
			C377.8,75.331,369.8,79.331,360.8,76.331L360.8,76.331z"/>
	</g>
	<g>
		<linearGradient id="SVGID_6_" gradientUnits="userSpaceOnUse" x1="448.6675" y1="0.5928" x2="448.6675" y2="107.6143">
			<stop  offset="0" style="stop-color:#40C9FF"/>
			<stop  offset="0.1127" style="stop-color:#49C0FF"/>
			<stop  offset="0.3003" style="stop-color:#62A6FF"/>
			<stop  offset="0.5395" style="stop-color:#8A7DFF"/>
			<stop  offset="0.8182" style="stop-color:#C144FF"/>
			<stop  offset="0.9944" style="stop-color:#E81CFF"/>
		</linearGradient>
		<path fill="url(#SVGID_6_)" d="M407.8,93.331c5-4,10-9,14-14c12,8,28,11,42,5c6-3,10-9,8-16c-1-3-4-4-7-4c-18-3-39,6-53-10
			c-6-9-8-19-5-29c3-9,10-16,18-20c19-8,43-6,59,7c-5,4-9,9-14,14c-11-8-26-8-38-3c-5,3-8,9-5,15c11,7,25,0,38,2c7,2,13,4,18,8
			c1,1,1,2,3,3c2,2,3,4,3,6c1,3,3,5,3,8c0,7,1,15-3,22C470.8,114.331,429.8,112.331,407.8,93.331L407.8,93.331z"/>
	</g>
	<g>
		<linearGradient id="SVGID_7_" gradientUnits="userSpaceOnUse" x1="542.9937" y1="2.2158" x2="542.9937" y2="106.3311">
			<stop  offset="0" style="stop-color:#40C9FF"/>
			<stop  offset="0.1127" style="stop-color:#49C0FF"/>
			<stop  offset="0.3003" style="stop-color:#62A6FF"/>
			<stop  offset="0.5395" style="stop-color:#8A7DFF"/>
			<stop  offset="0.8182" style="stop-color:#C144FF"/>
			<stop  offset="0.9944" style="stop-color:#E81CFF"/>
		</linearGradient>
		<path fill="url(#SVGID_7_)" d="M503.8,104.331c5-10,4-22,2-33c-3-23-6-46-2-69c18,5,36-1,54,0c10,1,18,7,23,15c4,8,4,17,2,26
			c-2,7-7,12-12,16c-2,1-3,2-5,3c-11,5-23,8-35,11c2,11,2,22-1,33C520.8,106.331,512.8,105.331,503.8,104.331L503.8,104.331z
			 M558.8,31.331c1-5-4-9-8-10c-10-2-20,4-30,4c0,10,2,20,5,30c8-2,16-4,24-8c3-1,5-4,7-6C557.8,38.331,560.8,35.331,558.8,31.331
			L558.8,31.331z"/>
	</g>
	<g>
		<linearGradient id="SVGID_8_" gradientUnits="userSpaceOnUse" x1="630.8003" y1="1.3306" x2="630.8003" y2="107.5967">
			<stop  offset="0" style="stop-color:#40C9FF"/>
			<stop  offset="0.1127" style="stop-color:#49C0FF"/>
			<stop  offset="0.3003" style="stop-color:#62A6FF"/>
			<stop  offset="0.5395" style="stop-color:#8A7DFF"/>
			<stop  offset="0.8182" style="stop-color:#C144FF"/>
			<stop  offset="0.9944" style="stop-color:#E81CFF"/>
		</linearGradient>
		<path fill="url(#SVGID_8_)" d="M663.8,102.331c-2-7-2-14-5-20c-14,3-29,6-43,9c-3,5-5,11-9,16c-10,1-19-1-29-3c9-8,14-19,18-30
			c7-23,4-48,16-70c9,0,18-3,27-3c4,19,18,32,28,49c9,17,17,35,17,54C676.8,103.331,670.8,102.331,663.8,102.331L663.8,102.331z
			 M623.8,25.331c-4,15-2,31-4,47c10-3,20-7,31-9C641.8,50.331,630.8,39.331,623.8,25.331L623.8,25.331z"/>
	</g>
	<g>
		<linearGradient id="SVGID_9_" gradientUnits="userSpaceOnUse" x1="733.0229" y1="0" x2="733.0229" y2="106.5859">
			<stop  offset="0" style="stop-color:#40C9FF"/>
			<stop  offset="0.1127" style="stop-color:#49C0FF"/>
			<stop  offset="0.3003" style="stop-color:#62A6FF"/>
			<stop  offset="0.5395" style="stop-color:#8A7DFF"/>
			<stop  offset="0.8182" style="stop-color:#C144FF"/>
			<stop  offset="0.9944" style="stop-color:#E81CFF"/>
		</linearGradient>
		<path fill="url(#SVGID_9_)" d="M683.8,60.331c-1-11,0-22,5-32c1-1,2-3,3-5c12-18,33-25,53-23c13,2,26,9,33,21c-7,2-14,4-20,8
			c-8-10-22-13-34-8c-1,1-3,2-5,3c-7,4-11,12-13,20c-3,16,4,32,19,39c16,8,37,0,40-18c3,1,6,2,8,4s4,4,7,5c7,4-1,10-4,15
			c-5,6-11,10-18,13c-5,3-11,3-17,4c-10,1-19-1-28-5c-1-1-3-2-5-3c-1,0-1-1-2-2c-1,0-2,0-3-1
			C692.8,86.331,684.8,74.331,683.8,60.331L683.8,60.331z"/>
	</g>
	<g>
		<linearGradient id="SVGID_10_" gradientUnits="userSpaceOnUse" x1="829.7944" y1="0.9131" x2="829.7944" y2="105.4941">
			<stop  offset="0" style="stop-color:#40C9FF"/>
			<stop  offset="0.1127" style="stop-color:#49C0FF"/>
			<stop  offset="0.3003" style="stop-color:#62A6FF"/>
			<stop  offset="0.5395" style="stop-color:#8A7DFF"/>
			<stop  offset="0.8182" style="stop-color:#C144FF"/>
			<stop  offset="0.9944" style="stop-color:#E81CFF"/>
		</linearGradient>
		<path fill="url(#SVGID_10_)" d="M793.8,104.331c4-9,4-19,3-28c-3-25-10-49-3-74c20,3,40-3,61-1c4,0,7,1,11,1c-2,5-2,11-3,16
			c-18-1-36,3-53,7c0,8,1,15,3,23c16-5,33-12,50-11c2,6,2,13,3,19c-17-2-31,6-47,10c2,7,4,14,3,21c16,0,31-9,47-5c-1,7,0,15-3,22
			c-22-2-44,2-66,1C797.8,105.331,795.8,104.331,793.8,104.331L793.8,104.331z"/>
	</g>
</g>
</svg>
